<svg height="24" viewBox="0 0 24 24" width="24" xmlns="http://www.w3.org/2000/svg"><path d="m14.8292095 19c-.417594 1.1832024-1.5425987 2-2.8292095 2-1.2894032 0-2.41288191-.8198308-2.82927101-2h-1.59320503c-1.38071188 0-2.5-1.1192881-2.5-2.5 0-.3497959.07340557-.6956987.21547112-1.0153462l.70700492-1.590761v-2.8938928c0-2.61243765 1.66961525-4.83491577 4-5.65858858v-.34141142c0-1.1045695.8954305-2 2-2s2 .8954305 2 2v.34141142c2.3303847.82367281 4 3.04615093 4 5.65858858v2.8938928l.7070049 1.590761c.5607602 1.2617105-.0074722 2.7391149-1.2691827 3.2998751-.3196475.1420655-.6655503.2154711-1.0153462.2154711zm-1.0963166 0h-3.4658069c.3487084.6033146 1.000824 1 1.732914 1 .730784 0 1.3835919-.3954614 1.7328929-1zm-.7328929-13.91704156v-.08295844c0-.55228475-.4477153-1-1-1s-1 .44771525-1 1v.08295844c.3252085-.05455964.6592878-.08295844 1-.08295844s.6747915.0283988 1 .08295844zm-1 .91704156c-2.76142375 0-5 2.23857625-5 5v3l-.04309423.2030692-.75009914 1.6877231c-.08523933.1917885-.12928267.3993302-.12928267.6092077 0 .8284271.67157287 1.5 1.5 1.5h8.84495204c.2098776 0 .4174192-.0440433.6092077-.1292827.7570263-.3364561 1.0979658-1.2228987.7615097-1.979925l-.7500992-1.6877231-.0430942-.2030692v-3c0-2.76142375-2.2385763-5-5-5z"/></svg>